<svg version="1.1" xmlns="http://www.w3.org/2000/svg" xmlns:xlink="http://www.w3.org/1999/xlink" viewBox="0 0 500.16 120.94" xml:space="preserve">
<style type="text/css"> .st0{fill:#FB8807;} .st1{fill:#FB5107;} .st2{fill:#EFDB01;} </style>
<g>
	<path class="st0" d="M15.56,27.28c-19.72,0-20.52,27.01,0,27.01c7.29,0,16.29,0,16.29,0S9.67,75.83,3.13,82.36
		C-3.4,88.9,0.35,103.8,13.85,103.8s37.29,0,51.65,0s15-23.15,0-27.22c-7.07-1.71-10.66-7.82-4.55-13.93s10.53-10.37,13.34-13.18
		c5.3-5.3,4.34-22.18-10.45-22.18S24.83,27.28,15.56,27.28z"/>
	<circle class="st0" cx="116.23" cy="65.54" r="38.58"/>
	<path class="st1" d="M116.23,65.54c-26.33,0-28.02-37.27-1.41-38.54c-20.65,0.74-37.17,17.71-37.17,38.54
		c0,21.31,17.27,38.58,38.58,38.58c0.48,0,0.96-0.02,1.44-0.04C144.57,102.8,139.82,65.54,116.23,65.54z"/>
	<path class="st0" d="M172.13,27.28L172.13,27.28c-7.52,0-13.61,6.09-13.61,13.61v49.3c0,7.52,6.09,13.61,13.61,13.61l0,0
		c7.52,0,13.61-6.09,13.61-13.61v-49.3C185.74,33.38,179.65,27.28,172.13,27.28z"/>
	<path class="st0" d="M461.1,27.28h-22.41c-7.52,0-13.61,6.09-13.61,13.61v49.3c0,7.52,6.09,13.61,13.61,13.61l22.41,0.32
		c21.31,0,38.58-17.27,38.58-38.58S482.41,27.28,461.1,27.28z"/>
	<path class="st1" d="M458.51,65.54c-0.14,0-14.57,0-14.71,0c-9.77-0.15-16.07-5.49-18.72-12.14v36.79
		c0,7.52,6.09,13.61,13.61,13.61l21.24,0.3c0.01-0.01,0.01-0.02,0.02-0.02C486.85,102.8,482.1,65.54,458.51,65.54z"/>
	<path class="st0" d="M402.68,27.28c-7.52,0-13.61,6.09-13.61,13.61v18.54c-24-24.97-26.26-32.15-36.11-32.15
		c-7.52,0-13.61,6.09-13.61,13.61v49.3c0,7.52,6.09,13.61,13.61,13.61c7.52,0,49.72,0,49.72,0c7.52,0,13.61-6.09,13.61-13.61v-49.3
		C416.29,33.38,410.19,27.28,402.68,27.28z"/>
	<path class="st0" d="M236.29,76.58h-17.83V40.89c0-7.52-6.09-13.61-13.61-13.61c-7.52,0-13.61,6.09-13.61,13.61v49.3
		c0,5.64,3.43,10.47,8.31,12.54c1.63,0.69,3.42,1.07,5.3,1.07h31.43c7.52,0,13.61-6.09,13.61-13.61
		C249.9,82.67,243.8,76.58,236.29,76.58z"/>
	<path class="st1" d="M158.52,81.62v8.56c0,7.52,6.09,13.61,13.61,13.61l0,0c7.52,0,13.61-6.09,13.61-13.61V46.55
		C179.48,57.65,165.77,71.24,158.52,81.62z"/>
	<path class="st1" d="M365.28,73.82c-9.95-9.55-20.94-5.45-25.93,3.72v12.65c0,7.52,6.09,13.61,13.61,13.61c5.54,0,29.95,0,42.39,0
		C386.33,95.75,375.88,83.99,365.28,73.82z"/>
	<path class="st0" d="M276.49,49c-5.21,9.19-16.02,27.27-21.08,37.82c-5.06,10.55,0.28,16.98,10.54,16.98c10.26,0,31.06,0,41.74,0
		c9.18,0,15.7-7.08,8.62-19.98c-5.09-9.27-16.35-29.03-19.72-34.81C293.21,43.22,281.72,39.77,276.49,49z"/>
	<path class="st1" d="M307.69,103.8c9,0,15.43-6.8,9.02-19.21c-21.14-12.69-30.32,19.07-53.27,19.07l0,0
		c0.8,0.09,1.63,0.14,2.51,0.14C276.21,103.8,297.01,103.8,307.69,103.8z"/>
	<g>

			<ellipse transform="matrix(0.9903 -0.1391 0.1391 0.9903 0.1072 37.8102)" class="st0" cx="270.65" cy="18.14" rx="10.94" ry="18.25"/>

			<ellipse transform="matrix(0.9518 -0.3066 0.3066 0.9518 -3.2309 78.9768)" class="st0" cx="249.77" cy="49.77" rx="10.94" ry="18.25"/>

			<ellipse transform="matrix(0.1391 -0.9903 0.9903 0.1391 242.1542 314.8086)" class="st0" cx="302.13" cy="18.14" rx="18.25" ry="10.94"/>

			<ellipse transform="matrix(0.3066 -0.9518 0.9518 0.3066 176.5943 341.9577)" class="st0" cx="323" cy="49.77" rx="18.25" ry="10.94"/>
	</g>
	<g>
		<path class="st2" d="M251.91,9.24l-250.63,0C0.58,9.24,0,9.82,0,10.53l0,0.71c0,0.71,0.58,1.29,1.29,1.29h250.63
			c0.71,0,1.29-0.58,1.29-1.29v-0.71C253.2,9.82,252.62,9.24,251.91,9.24z"/>
		<path class="st2" d="M498.87,9.24H320.58c-0.71,0-1.29,0.58-1.29,1.29v0.71c0,0.71,0.58,1.29,1.29,1.29h178.29
			c0.71,0,1.29-0.58,1.29-1.29v-0.71C500.16,9.82,499.58,9.24,498.87,9.24z"/>
		<path class="st2" d="M498.39,117.66H1.29c-0.71,0-1.29,0.58-1.29,1.29l0,0.71c0,0.71,0.58,1.29,1.29,1.29h497.11
			c0.71,0,1.29-0.58,1.29-1.29v-0.71C499.68,118.24,499.1,117.66,498.39,117.66z"/>
	</g>
</g>
</svg>
